<?xml version="1.0" encoding="utf-8"?>
<!-- Generator: Adobe Illustrator 25.4.0, SVG Export Plug-In . SVG Version: 6.00 Build 0)  -->
<svg version="1.1" id="Layer_1" xmlns="http://www.w3.org/2000/svg" xmlns:xlink="http://www.w3.org/1999/xlink" x="0px" y="0px"
	 viewBox="0 0 507.41 174.37" style="enable-background:new 0 0 507.41 174.37;" xml:space="preserve">
<style type="text/css">
	.st0{fill:#68CAD5;}
	.st1{fill:#2683C5;}
	.st2{fill:#35B2E2;}
	.st3{fill:#11669F;}
	.st4{fill:#2DA4D0;}
	.st5{fill:#48AAB1;}
</style>
<polyline class="st0" points="251.58,103.06 214.29,13.04 162.32,6.73 209.66,15.32 242.85,102.39 205.11,161.12 "/>
<polygon class="st1" points="89.11,47.62 106.19,10.97 181.36,30.27 199.55,106.49 174.04,162.65 118.25,140.02 177.07,169.01 
	210.69,106.49 187.2,24.32 106.19,6.94 "/>
<polyline class="st2" points="231.47,103.99 200.04,17.76 140.01,7.44 196.38,20.86 222.14,103.77 188.52,166.51 "/>
<polyline class="st3" points="109.01,16.29 177.51,34.29 195.01,104.79 172.51,156.62 118.25,140.02 174.04,162.65 199.55,106.49 
	181.36,30.27 106.19,10.97 89.11,47.62 "/>
<polyline class="st4" points="222.94,104.99 196.38,20.86 140.64,7.55 193.85,21.86 218.61,104.77 188.98,165.66 "/>
<polyline class="st5" points="242.85,102.39 209.66,15.32 163.46,6.94 206.95,17.67 239.18,102.29 205.87,159.94 "/>
<g>
	<path class="st2" d="M265.59,63.29v-29.7h2.43v29.7H265.59z"/>
	<path class="st2" d="M295.56,63.56l-17.59-26.95v26.68h-2.43v-29.7h3.6l17.05,26.41V33.59h2.43v29.97H295.56z"/>
	<path class="st2" d="M317.79,63.88c-8.23,0-14.31-6.39-14.31-15.43c0-9,6.08-15.39,14.31-15.39c8.24,0,14.26,6.39,14.26,15.39
		C332.05,57.49,325.98,63.88,317.79,63.88z M317.79,35.3c-6.43,0-11.61,6.03-11.61,13.14c0,7.15,5.17,13.18,11.61,13.18
		c6.39,0,11.56-6.03,11.56-13.18C329.35,41.33,324.18,35.3,317.79,35.3z"/>
	<path class="st2" d="M352.26,63.29l-8.37-13.23h-4.54v13.23h-2.43v-29.7h8.68c5.04,0,8.46,2.25,8.46,7.74
		c0,4.95-3.06,7.96-7.47,8.37l8.64,13.59H352.26z M344.34,35.75h-5V47.9h5.45c4.32,0,6.57-2.25,6.57-6.52
		C351.36,36.7,348.43,35.75,344.34,35.75z"/>
	<path class="st2" d="M371.74,63.88c-8.55,0-14.98-6.66-14.98-15.48c0-8.86,6.44-15.3,15.08-15.3c3.33,0,6.12,0.58,9,1.98
		l-0.94,2.07c-2.61-1.26-5.04-1.8-7.7-1.8c-7.51,0-12.73,5.26-12.73,12.78c0,7.69,5.26,13.5,13.09,13.5c1.58,0,3.38-0.36,5.98-1.03
		v-9.94h2.43V62.3C378.09,63.38,374.85,63.88,371.74,63.88z"/>
	<path class="st2" d="M405.09,63.29l-3.06-9.13h-12.92l-3.06,9.13h-2.65l10.66-30.55h3.06l10.62,30.55H405.09z M395.59,35.21
		l-5.71,16.65h11.38L395.59,35.21z"/>
	<path class="st2" d="M430.96,63.56l-17.59-26.95v26.68h-2.43v-29.7h3.6l17.05,26.41V33.59h2.43v29.97H430.96z"/>
	<path class="st2" d="M441.54,63.29v-29.7h2.43v29.7H441.54z"/>
	<path class="st2" d="M470.11,37.46c-2.16-1.44-4.32-2.16-7.11-2.16c-6.75,0-11.47,5.49-11.47,12.78c0,7.96,4.77,13.54,12.19,13.54
		c2.38,0,4.5-0.58,6.75-1.57l0.81,2.11c-2.29,1.08-5.22,1.71-7.78,1.71c-8.55,0-14.67-6.34-14.67-15.57
		c0-8.77,6.21-15.25,14.31-15.25c2.92,0,5.8,0.85,8.19,2.52L470.11,37.46z"/>
	<path class="st2" d="M291.6,104.29V76.71l-10.98,27.58h-2.47L267.7,76.71v27.58h-2.21v-29.7h4.09l10.03,27.04l10.39-27.04h4v29.7
		H291.6z"/>
	<path class="st2" d="M318.91,104.29l-3.06-9.13h-12.92l-3.06,9.13h-2.65l10.66-30.55h3.06l10.62,30.55H318.91z M309.42,76.21
		l-5.71,16.65h11.38L309.42,76.21z"/>
	<path class="st2" d="M330.3,76.75v27.54h-2.43V76.75h-9.9v-2.16h22.23v2.16H330.3z"/>
	<path class="st2" d="M343.21,104.29v-29.7h15.43v2.16h-13v11.29h10.75v2.16h-10.75v11.92h13.41v2.16H343.21z"/>
	<path class="st2" d="M379.26,104.29l-8.37-13.23h-4.54v13.23h-2.43v-29.7h8.68c5.04,0,8.46,2.25,8.46,7.74
		c0,4.95-3.06,7.96-7.47,8.37l8.64,13.59H379.26z M371.34,76.75h-5V88.9h5.45c4.32,0,6.57-2.25,6.57-6.52
		C378.36,77.7,375.43,76.75,371.34,76.75z"/>
	<path class="st2" d="M386.64,104.29v-29.7h2.43v29.7H386.64z"/>
	<path class="st2" d="M413.95,104.29l-3.06-9.13h-12.92l-3.06,9.13h-2.65l10.66-30.55h3.06l10.62,30.55H413.95z M404.46,76.21
		l-5.71,16.65h11.38L404.46,76.21z"/>
	<path class="st2" d="M419.8,104.29v-29.7h2.43v27.54h13.27v2.16H419.8z"/>
	<path class="st2" d="M452.65,78.42c-2.25-1.35-4.32-2.07-6.98-2.07c-3.6,0-6.16,1.94-6.16,4.99c0,2.7,1.44,4,7.38,7.29
		c3.46,1.89,6.79,3.78,6.79,8.23c0,4.9-3.46,8.01-9.13,8.01c-3.42,0-5.76-0.99-8.5-2.88l1.26-2.02c2.52,1.71,4.37,2.65,7.51,2.65
		c3.78,0,6.17-2.07,6.17-5.4c0-4.41-4.86-6.21-8.05-8.01c-4.37-2.43-6.12-4.95-6.12-7.83c0-4.5,3.55-7.29,9.18-7.29
		c3.1,0,5.17,0.63,7.79,2.21L452.65,78.42z"/>
	<path class="st2" d="M487.21,104.83c-2.34,0-3.74-1.31-5.27-3.65c-3.15,3.06-6.03,3.69-9.36,3.69c-5.08,0-8.46-3.01-8.46-7.83
		c0-3.02,1.26-5.13,5.4-8.59l2.29-1.89l-1.93-2.61c-1.76-2.43-2.29-3.87-2.29-5.76c0-4.36,3.28-7.2,8.14-7.2
		c4.45,0,7.47,2.48,7.47,6.07c0,1.85-1.31,4-3.83,5.94l-1.49,1.12l-1.08-1.44l1.44-1.08c1.84-1.44,2.61-2.7,2.61-4.45
		c0-2.43-2.16-4.14-5.17-4.14c-3.29,0-5.76,2.07-5.76,4.9c0,2.48,1.75,4.81,3.1,6.66l9.4,13.23c1.35-1.98,1.8-3.33,2.29-4.86
		c0.36-1.17,0.86-2.83,0.99-4.27h1.98c-0.31,2.25-0.9,3.96-1.39,5.4c-0.67,1.98-1.3,3.1-2.83,5.35c1.93,2.79,2.79,3.46,4.18,3.46
		c1.71,0,2.7-1.67,3.74-3.6l1.48,0.94C491.66,102.67,490.14,104.83,487.21,104.83z M472.81,88.09l-2.48,2.07
		c-2.65,2.21-3.87,3.96-3.87,6.48c0,3.6,2.7,6.25,6.79,6.25c3.24,0,5.62-1.08,7.83-3.24L472.81,88.09z"/>
	<path class="st2" d="M284.22,119.46c-2.16-1.44-4.32-2.16-7.11-2.16c-6.75,0-11.47,5.49-11.47,12.78c0,7.96,4.77,13.54,12.19,13.54
		c2.38,0,4.5-0.58,6.75-1.57l0.81,2.11c-2.29,1.08-5.22,1.71-7.78,1.71c-8.55,0-14.67-6.34-14.67-15.57
		c0-8.77,6.21-15.25,14.31-15.25c2.92,0,5.8,0.85,8.19,2.52L284.22,119.46z"/>
	<path class="st2" d="M306.63,145.29l-3.06-9.13h-12.92l-3.06,9.13h-2.65l10.66-30.55h3.06l10.62,30.55H306.63z M297.13,117.21
		l-5.71,16.65h11.38L297.13,117.21z"/>
	<path class="st2" d="M318.01,117.75v27.54h-2.43v-27.54h-9.9v-2.16h22.23v2.16H318.01z"/>
	<path class="st2" d="M346.05,145.29l-3.06-9.13h-12.92l-3.06,9.13h-2.65l10.66-30.55h3.06l10.62,30.55H346.05z M336.55,117.21
		l-5.71,16.65h11.38L336.55,117.21z"/>
	<path class="st2" d="M351.9,145.29v-29.7h2.43v27.54h13.27v2.16H351.9z"/>
	<path class="st2" d="M375.7,131.3v13.99h-2.43v-13.68l-9.45-16.02h2.97l7.88,13.41l8.19-13.41h2.79L375.7,131.3z"/>
	<path class="st2" d="M402.34,119.42c-2.25-1.35-4.32-2.07-6.98-2.07c-3.6,0-6.16,1.93-6.16,4.99c0,2.7,1.44,4,7.38,7.29
		c3.46,1.89,6.79,3.78,6.79,8.23c0,4.91-3.46,8.01-9.13,8.01c-3.42,0-5.76-0.99-8.5-2.88l1.26-2.02c2.52,1.71,4.37,2.65,7.51,2.65
		c3.78,0,6.17-2.07,6.17-5.4c0-4.41-4.86-6.21-8.05-8.01c-4.37-2.43-6.12-4.95-6.12-7.83c0-4.5,3.55-7.29,9.18-7.29
		c3.1,0,5.17,0.63,7.79,2.21L402.34,119.42z"/>
	<path class="st2" d="M408.69,145.29v-29.7h2.43v29.7H408.69z"/>
	<path class="st2" d="M432.76,119.42c-2.25-1.35-4.32-2.07-6.98-2.07c-3.6,0-6.16,1.93-6.16,4.99c0,2.7,1.44,4,7.38,7.29
		c3.46,1.89,6.79,3.78,6.79,8.23c0,4.91-3.46,8.01-9.13,8.01c-3.42,0-5.76-0.99-8.5-2.88l1.26-2.02c2.52,1.71,4.37,2.65,7.51,2.65
		c3.78,0,6.17-2.07,6.17-5.4c0-4.41-4.86-6.21-8.05-8.01c-4.37-2.43-6.12-4.95-6.12-7.83c0-4.5,3.55-7.29,9.18-7.29
		c3.1,0,5.17,0.63,7.79,2.21L432.76,119.42z"/>
</g>
<g>
	<g>
		<path class="st3" d="M7.39,122.17V64.8h9.67v57.37H7.39z"/>
		<path class="st3" d="M84.99,122.17V93.32c0-7.25,0.08-14.5,0.32-21.76h-0.16c-2.18,7.25-4.51,14.42-6.93,21.6l-9.91,29.01H57.27
			l-9.91-29.01c-2.42-7.17-4.75-14.34-6.93-21.6h-0.16c0.24,7.25,0.32,14.5,0.32,21.76v28.85h-9.35V64.8H46.8l9.27,27.32
			c2.42,7.09,4.67,14.42,6.61,21.6h0.16c2.01-7.17,4.27-14.5,6.69-21.6l9.27-27.32h15.55v57.37H84.99z"/>
		<path class="st3" d="M153.65,84.46h-9.75c-0.81-7.58-5.88-12.25-13.54-12.25c-9.75,0-15.71,8.06-15.71,21.27
			c0,13.22,5.88,21.27,15.47,21.27c7.66,0,12.81-4.67,13.86-12.49h9.91c-1.13,13.13-9.99,21.11-23.77,21.11
			c-15.79,0-25.46-11.36-25.46-29.9c0-18.53,9.75-29.9,25.71-29.9C144.38,63.59,153.09,72.29,153.65,84.46z"/>
	</g>
</g>
</svg>
