<?xml version="1.0" encoding="utf-8"?>
<!-- Generator: Adobe Illustrator 25.4.1, SVG Export Plug-In . SVG Version: 6.00 Build 0)  -->
<svg version="1.1"
	 id="svg874" xmlns:cc="http://creativecommons.org/ns#" xmlns:dc="http://purl.org/dc/elements/1.1/" xmlns:rdf="http://www.w3.org/1999/02/22-rdf-syntax-ns#" xmlns:svg="http://www.w3.org/2000/svg"
	 xmlns="http://www.w3.org/2000/svg" xmlns:xlink="http://www.w3.org/1999/xlink" x="0px" y="0px" viewBox="0 0 205.5 52.4"
	 style="enable-background:new 0 0 205.5 52.4;" xml:space="preserve">
<style type="text/css">
	.st0{fill:#A9A2A1;stroke:#DEDCDB;stroke-width:0.1;stroke-miterlimit:10;}
	.st1{fill:#E07A5F;}
	.st2{fill:#525893;}
	.st3{fill:#81B29A;}
	.st4{fill:#A9A3A1;stroke:#DEDCDB;stroke-width:0.1;stroke-miterlimit:10;}
</style>
<g id="layer1" transform="translate(1.4463515,-85.357361)">
	<path id="letter_ds_m" class="st0" d="M53.9,112.4l-8-19.1c-0.3-0.9-0.3-0.9-1.5-0.9h-7.8c-0.8,0-1.4,0-1.4,0.7s0.7,0.7,0.9,0.7
		c0.5,0,1.6,0.1,2.6,0.5v22.4c0,0.9,0,2.8-2.8,3c-0.8,0.1-0.8,0.7-0.8,0.7c0,0.7,0.7,0.7,1.4,0.7H43c0.8,0,1.4,0,1.4-0.7
		c0-0.4-0.3-0.7-0.7-0.7c-3.2-0.3-3.2-2-3.2-3V95.9l0.1-0.1l10.2,24.5c0.4,0.7,0.7,0.9,0.9,0.9c0.5,0,0.6-0.3,0.9-0.9l10.3-24.5
		l0.1,0.1v20.8c0,0.9,0,2.8-2.9,3c-0.8,0.1-0.8,0.7-0.8,0.7c0,0.7,0.7,0.7,1.4,0.7h11.2c0.8,0,1.4,0,1.4-0.7c0-0.4-0.3-0.7-0.7-0.7
		c-3.2-0.3-3.2-2-3.2-3V96.9c0-0.9,0-2.8,2.8-3c0.5,0,0.8-0.3,0.8-0.7c0-0.7-0.6-0.7-1.4-0.7h-8.1c-1.1,0-1.2,0-1.5,0.9L53.9,112.4z
		 M52.6,113.2c0.3,0.7,0.4,0.7,0.9,0.9l-1.9,4.4h-0.1l-9.5-22.8c-0.2-0.5-0.6-1.2-1.1-1.8h3.6L52.6,113.2z M40.1,119.6l-0.7,0.6
		c0.1-0.1,1-0.4,1.1-0.4c0.1-0.1-0.7-0.7-0.7-0.7L40.1,119.6z M64.3,93.9h4.5c-1,1.1-1,2.2-1,2.9v20.1c0,0.7,0,1.8,1,2.9h-5.4
		c0.9-1.1,0.9-2.2,0.9-2.9V93.9z"/>
	<path id="triangle" class="st1" d="M175.4,130.6h-19.5l9.8-16.9L175.4,130.6z"/>
	<rect id="square" x="142.9" y="102.3" class="st2" width="22.6" height="22.6"/>
	<circle id="circle" class="st3" cx="142.8" cy="125" r="11.5"/>
	<path id="letter_a" class="st4" d="M77.6,108.2c0-0.7,0.9-1.1,2-1.1c1.8,0,2.6,0.8,2.6,2.7v2.3c-3.6,1.1-8.3,2.3-8.3,5.8
		c0,1.9,1.5,3.3,3.4,3.3c1.8,0,3.2-0.6,4.9-2.2c0.3,1.6,1,2.2,2.5,2.2c1.3,0,2.3-0.5,3.5-1.8l-0.5-0.7l-0.3,0.3
		c-0.1,0.1-0.2,0.1-0.3,0.1c-0.4,0-0.7-0.3-0.7-0.8v-8.1c0-2.6-2.4-4.3-6.1-4.3c-3.5,0-5.9,1.6-5.9,3.9c0,1.3,0.7,2,2,2
		c1.2,0,2.1-0.7,2.1-1.8C78.5,109.3,77.6,108.7,77.6,108.2L77.6,108.2z M82.1,117.7c-0.8,1-1.5,1.3-2.2,1.3c-0.9,0-1.6-0.8-1.6-2.1
		c0-1.8,1.3-3.1,3.8-3.8V117.7z"/>
	<path id="letter_n" class="st4" d="M97.7,108.2c1.1,0,1.6,0.8,1.6,2.6v7.5c0,1.1-0.4,1.6-1.5,1.8v0.7h7.3V120
		c-1.2-0.1-1.5-0.5-1.5-1.8v-7.8c0-2.7-1.6-4.4-4.2-4.4c-1.9,0-3.3,0.9-4.4,2.7v-2.3h-5.9v0.7c1.4,0.2,1.6,0.5,1.6,1.8v9.1
		c0,1.3-0.2,1.6-1.6,1.9v0.7h7.5V120c-1.1-0.2-1.5-0.6-1.5-1.8V110C95.1,109.6,96.4,108.2,97.7,108.2z"/>
	<path id="letter_i" class="st4" d="M112.5,106.5h-6v0.7c1.4,0.3,1.6,0.6,1.6,1.8v9.1c0,1.3-0.2,1.5-1.6,1.9v0.7h7.5V120
		c-1.1-0.2-1.5-0.6-1.5-1.8V106.5z M110.3,99.3c-1.3,0-2.4,1.1-2.4,2.4c0,1.4,1,2.4,2.4,2.4c1.4,0,2.4-1,2.4-2.4
		C112.7,100.4,111.6,99.3,110.3,99.3z"/>
	<path id="letter_m" class="st4" d="M123.8,108.2c1.2,0,1.7,0.7,1.7,2.6v7.5c0,1.3-0.3,1.7-1.5,1.8v0.7h7.3V120
		c-1.1-0.1-1.5-0.6-1.5-1.8V110c0-0.3,1.4-1.8,2.6-1.8c1.2,0,1.6,0.7,1.6,2.6v7.5c0,1.3-0.3,1.7-1.5,1.8v0.7h7.4V120
		c-1.2-0.1-1.6-0.4-1.6-1.8v-7.8c0-2.7-1.6-4.4-4.2-4.4c-1.8,0-2.9,0.7-4.6,2.7c-0.9-2-2-2.7-4-2.7c-2,0-3.4,0.8-4.6,2.7v-2.3h-5.9
		v0.7c1.4,0.2,1.6,0.6,1.6,1.8v9.1c0,1.3-0.3,1.6-1.6,1.9v0.7h7.4V120c-1.1-0.2-1.4-0.6-1.4-1.8V110
		C121.2,109.6,122.6,108.2,123.8,108.2L123.8,108.2z"/>
</g>
</svg>
