<svg id="svg2" xmlns="http://www.w3.org/2000/svg" xmlns:xlink="http://www.w3.org/1999/xlink" viewBox="0 0 474.8 137.8"><defs><linearGradient id="linear-gradient" x1="616.7" y1="-274.11" x2="725.72" y2="-367.9" gradientTransform="matrix(0.56, 0, 0, -0.57, -344.06, -146.09)" gradientUnits="userSpaceOnUse"><stop offset="0" stop-color="#5a9fd4"/><stop offset="1" stop-color="#306998"/></linearGradient><linearGradient id="linear-gradient-2" x1="767.86" y1="-424.67" x2="728.94" y2="-369.59" gradientTransform="matrix(0.56, 0, 0, -0.57, -344.06, -146.09)" gradientUnits="userSpaceOnUse"><stop offset="0" stop-color="#ffd43b"/><stop offset="1" stop-color="#ffe873"/></linearGradient><radialGradient id="radial-gradient" cx="-2708.09" cy="-258.63" r="29.04" gradientTransform="matrix(0, -0.24, -1.05, 0, -211.36, -515.7)" gradientUnits="userSpaceOnUse"><stop offset="0" stop-color="#b8b8b8" stop-opacity="0.5"/><stop offset="1" stop-color="#7f7f7f" stop-opacity="0"/></radialGradient></defs><path id="path46" d="M184.61,61.93q0-21.84-12.45-22.45a23.47,23.47,0,0,0-9.67,1.59,14.19,14.19,0,0,0-5.08,2.68V78.51q8,5,14.14,4.64Q184.61,82.28,184.61,61.93Zm10.25.6q0,11.1-5.23,18.43a19.26,19.26,0,0,1-16.17,8.52q-7.78.26-16.05-4.87V116.2L148.5,113V42.9a20,20,0,0,1,5.62-4.64q8-4.63,19.33-4.75l.13.12a17.74,17.74,0,0,1,16,8.53Q194.85,50.1,194.86,62.53Z" transform="translate(-5.59 -3.26)" style="fill:#646464"/><path id="path48" d="M249.3,83.27q0,14.88-3,20.61T234.91,113A43.67,43.67,0,0,1,220.15,116l-1.47-5.62A71.26,71.26,0,0,0,230,108.15q6.47-2.19,8.9-6.71c1.31-2.44,1.95-7.11,1.95-14V85.1a45.71,45.71,0,0,1-19.15,4.14,17.58,17.58,0,0,1-11.59-4.14,14.09,14.09,0,0,1-5.61-11.46V36.56l8.91-3.05V70.83q0,6,3.86,9.21a14.58,14.58,0,0,0,10,3.11c4.08-.09,8.46-1.67,13.11-4.76V34.85h8.9Z" transform="translate(-5.59 -3.26)" style="fill:#646464"/><path id="path50" d="M284.08,89c-1.06.08-2,.12-2.93.12q-7.56,0-11.78-3.6c-2.79-2.41-4.2-5.73-4.2-10V40.46h-6.1V34.85h6.1V20l8.9-3.17V34.85h10v5.61h-10V75.3c0,3.35.9,5.71,2.69,7.1,1.54,1.14,4,1.79,7.32,2Z" transform="translate(-5.59 -3.26)" style="fill:#646464"/><path id="path52" d="M338,88.27h-8.91V53.88a16.26,16.26,0,0,0-2.44-9,8.92,8.92,0,0,0-7.85-4.27q-6.12,0-15.32,6.47V88.27h-8.91V6.07l8.91-2.81V40.7a31,31,0,0,1,18.66-6.22,14.89,14.89,0,0,1,11.47,4.76A16.76,16.76,0,0,1,338,51.07v37.2Z" transform="translate(-5.59 -3.26)" style="fill:#646464"/><path id="path54" d="M385.37,60.53q0-8.4-3.17-13.87a13.3,13.3,0,0,0-11.71-7q-14.65.84-14.64,21,0,9.23,3.06,15.41,3.91,7.89,11.76,7.76Q385.37,83.65,385.37,60.53Zm9.76,0q0,12-6.1,19.89-6.7,8.88-18.54,8.9t-18.3-8.9q-6-7.93-6-19.89,0-11.22,6.46-18.91a22.29,22.29,0,0,1,17.94-8.16,22.65,22.65,0,0,1,18.06,8.16Q395.14,49.36,395.13,60.58Z" transform="translate(-5.59 -3.26)" style="fill:#646464"/><path id="path56" d="M446.21,88.27H437.3V51.93q0-6-3.6-9.34t-9.58-3.23A21.45,21.45,0,0,0,412,43.51V88.27h-8.91V42.41q7.69-5.61,14.16-7.31A42.79,42.79,0,0,1,428,33.51a27.83,27.83,0,0,1,6,.61,17.21,17.21,0,0,1,8.54,4.51,11.94,11.94,0,0,1,3.67,8.79Z" transform="translate(-5.59 -3.26)" style="fill:#646464"/><path id="path1948" d="M60.51,6.4A76.59,76.59,0,0,0,47.7,7.49c-11.35,2-13.41,6.2-13.41,13.94V31.65H61.1v3.4H24.23c-7.79,0-14.62,4.69-16.75,13.6C5,58.86,4.91,65.23,7.48,75.9c1.9,7.94,6.46,13.59,14.25,13.59H31V77.24A17,17,0,0,1,47.7,60.59H74.48A13.52,13.52,0,0,0,87.89,47V21.43c0-7.27-6.13-12.73-13.41-13.94A83.49,83.49,0,0,0,60.51,6.4ZM46,14.62a5.11,5.11,0,1,1-5,5.12A5.09,5.09,0,0,1,46,14.62Z" transform="translate(-5.59 -3.26)" style="fill:url(#linear-gradient)"/><path id="path1950" d="M91.23,35.05V47c0,9.23-7.83,17-16.75,17H47.7A13.68,13.68,0,0,0,34.29,77.59v25.53c0,7.26,6.32,11.54,13.41,13.62a44.79,44.79,0,0,0,26.78,0c6.75-1.95,13.41-5.89,13.41-13.62V92.9H61.1V89.49h40.19c7.79,0,10.7-5.43,13.41-13.59,2.8-8.4,2.68-16.48,0-27.25-1.93-7.76-5.61-13.6-13.41-13.6ZM76.17,99.71a5.11,5.11,0,1,1-5,5.09A5.06,5.06,0,0,1,76.17,99.71Z" transform="translate(-5.59 -3.26)" style="fill:url(#linear-gradient-2)"/><path id="text3004" d="M463.55,26.91h1.57v-9.8h3.7V16h-9v1.16h3.7v9.8m6.65,0h1.34V18l2.89,9h1.49l3-8.92v8.92h1.45V16h-1.92l-3.3,9.39L472.35,16H470.2v11" transform="translate(-5.59 -3.26)" style="fill:#646464"/><path id="path1894" d="M97.34,134.1c0,3.85-16.09,7-35.93,7s-35.93-3.12-35.93-7,16.08-7,35.93-7S97.34,130.25,97.34,134.1Z" transform="translate(-5.59 -3.26)" style="isolation:isolate;opacity:0.44382020831108093;fill:url(#radial-gradient)"/></svg>