<?xml version="1.0" encoding="utf-8"?>
<!-- Generator: Adobe Illustrator 25.4.0, SVG Export Plug-In . SVG Version: 6.00 Build 0)  -->
<svg version="1.1" id="Layer_1" xmlns="http://www.w3.org/2000/svg" xmlns:xlink="http://www.w3.org/1999/xlink" x="0px" y="0px"
	 viewBox="0 0 224.5 61.23" style="enable-background:new 0 0 224.5 61.23;" xml:space="preserve">
<style type="text/css">
	.st0{opacity:0;fill:#FFFFFF;}
	.st1{fill:#C81919;}
</style>
<rect class="st0" width="224.5" height="61.23"/>
<g>
	<g>
		<g>
			<path class="st1" d="M122.48,20.41v-7.64h5.14v1.55h-3.36v1.45h3.18v1.48h-3.18v1.59h3.55v1.58H122.48z"/>
			<path class="st1" d="M129.31,20.41v-7.64h1.86v7.64H129.31z"/>
			<path class="st1" d="M137.8,20.41l-3.08-4.99h-0.03l0.04,4.99h-1.79v-7.64h2.11l3.07,4.98h0.03l-0.04-4.98h1.79v7.64H137.8z"/>
			<path class="st1" d="M148.81,16.57c0,0.67-0.12,1.25-0.37,1.73c-0.25,0.49-0.58,0.88-0.98,1.2c-0.41,0.31-0.87,0.54-1.38,0.69
				c-0.51,0.15-1.03,0.22-1.56,0.22h-2.85v-7.64h2.76c0.54,0,1.07,0.06,1.6,0.19c0.53,0.13,0.99,0.33,1.4,0.63
				c0.41,0.29,0.74,0.68,0.99,1.17C148.69,15.25,148.81,15.85,148.81,16.57z M146.89,16.57c0-0.43-0.07-0.79-0.21-1.07
				c-0.14-0.28-0.33-0.51-0.56-0.68c-0.23-0.17-0.5-0.29-0.8-0.36c-0.3-0.07-0.61-0.11-0.92-0.11h-0.92v4.47h0.87
				c0.33,0,0.65-0.04,0.96-0.11c0.31-0.08,0.58-0.2,0.81-0.37c0.23-0.17,0.42-0.4,0.56-0.69C146.82,17.35,146.89,16.99,146.89,16.57
				z"/>
			<path class="st1" d="M155.02,20.41v-3.19h-2.98v3.19h-1.85v-7.64h1.85v2.89h2.98v-2.89h1.85v7.64H155.02z"/>
			<path class="st1" d="M166.61,16.56c0,0.6-0.1,1.16-0.31,1.66c-0.21,0.5-0.5,0.93-0.87,1.28c-0.37,0.36-0.81,0.63-1.32,0.83
				c-0.51,0.19-1.07,0.29-1.66,0.29c-0.6,0-1.15-0.1-1.66-0.29c-0.51-0.19-0.95-0.47-1.32-0.83c-0.37-0.36-0.66-0.78-0.87-1.28
				c-0.21-0.5-0.31-1.05-0.31-1.66c0-0.61,0.1-1.16,0.31-1.66c0.21-0.49,0.5-0.91,0.87-1.26c0.37-0.35,0.81-0.61,1.32-0.8
				c0.51-0.19,1.06-0.28,1.66-0.28c0.6,0,1.15,0.09,1.66,0.28c0.51,0.19,0.95,0.45,1.32,0.8c0.37,0.35,0.66,0.76,0.87,1.26
				C166.5,15.4,166.61,15.95,166.61,16.56z M164.63,16.56c0-0.33-0.05-0.64-0.16-0.93c-0.11-0.29-0.26-0.53-0.45-0.74
				c-0.19-0.2-0.42-0.37-0.69-0.49c-0.27-0.12-0.57-0.18-0.89-0.18c-0.32,0-0.62,0.06-0.89,0.18c-0.27,0.12-0.5,0.28-0.69,0.49
				c-0.19,0.2-0.34,0.45-0.45,0.74c-0.1,0.29-0.16,0.6-0.16,0.93c0,0.35,0.05,0.66,0.16,0.95c0.11,0.29,0.26,0.54,0.45,0.75
				c0.19,0.21,0.42,0.37,0.69,0.49c0.27,0.12,0.56,0.18,0.89,0.18c0.32,0,0.62-0.06,0.89-0.18c0.27-0.12,0.5-0.28,0.69-0.49
				c0.19-0.21,0.35-0.46,0.45-0.75C164.58,17.22,164.63,16.9,164.63,16.56z"/>
			<path class="st1" d="M171.53,20.41h-1.85l-2.89-7.64h2.07l1.77,5.42h0.04l1.76-5.42h2.04L171.53,20.41z"/>
			<path class="st1" d="M175.36,20.41v-7.64h5.14v1.55h-3.36v1.45h3.18v1.48h-3.18v1.59h3.55v1.58H175.36z"/>
			<path class="st1" d="M187.04,20.41l-3.08-4.99h-0.03l0.04,4.99h-1.79v-7.64h2.11l3.07,4.98h0.03l-0.04-4.98h1.79v7.64H187.04z"/>
		</g>
		<g>
			<g>
				<path class="st1" d="M126.48,39.86v6.06h-1.85v-6.06h-2.16v-1.58h6.17v1.58H126.48z"/>
				<path class="st1" d="M129.64,45.92v-7.64h5.14v1.55h-3.36v1.45h3.18v1.48h-3.18v1.59h3.55v1.58H129.64z"/>
				<path class="st1" d="M141.8,45.79c-0.5,0.23-1.07,0.34-1.72,0.34c-0.59,0-1.14-0.1-1.64-0.29c-0.5-0.19-0.93-0.47-1.3-0.83
					c-0.37-0.36-0.66-0.78-0.86-1.28c-0.21-0.5-0.31-1.04-0.31-1.64c0-0.61,0.11-1.16,0.32-1.66c0.21-0.5,0.51-0.92,0.88-1.27
					c0.37-0.35,0.81-0.62,1.32-0.8c0.5-0.19,1.05-0.28,1.63-0.28c0.54,0,1.07,0.1,1.59,0.29c0.52,0.19,0.95,0.47,1.27,0.84
					l-1.25,1.25c-0.17-0.24-0.4-0.41-0.68-0.53c-0.28-0.11-0.57-0.17-0.86-0.17c-0.32,0-0.62,0.06-0.89,0.18
					c-0.27,0.12-0.5,0.28-0.7,0.49c-0.19,0.21-0.35,0.46-0.45,0.74c-0.11,0.28-0.16,0.6-0.16,0.93c0,0.35,0.05,0.66,0.16,0.95
					c0.11,0.29,0.26,0.53,0.45,0.74c0.19,0.21,0.42,0.37,0.69,0.48c0.27,0.12,0.56,0.17,0.87,0.17c0.37,0,0.69-0.07,0.96-0.22
					c0.27-0.14,0.49-0.33,0.66-0.56l1.29,1.21C142.72,45.25,142.3,45.56,141.8,45.79z"/>
				<path class="st1" d="M148.85,45.92v-3.19h-2.98v3.19h-1.85v-7.64h1.85v2.89h2.98v-2.89h1.85v7.64H148.85z"/>
				<path class="st1" d="M157.34,45.92l-3.08-4.99h-0.03l0.04,4.99h-1.79v-7.64h2.11l3.07,4.98h0.03l-0.04-4.98h1.79v7.64H157.34z"
					/>
				<path class="st1" d="M169.17,42.07c0,0.6-0.1,1.16-0.31,1.66c-0.21,0.5-0.5,0.93-0.87,1.28c-0.37,0.36-0.81,0.63-1.32,0.83
					c-0.51,0.19-1.07,0.29-1.66,0.29c-0.6,0-1.15-0.1-1.66-0.29c-0.51-0.19-0.95-0.47-1.32-0.83c-0.37-0.36-0.66-0.78-0.87-1.28
					c-0.21-0.5-0.31-1.05-0.31-1.66c0-0.61,0.1-1.16,0.31-1.66c0.21-0.49,0.5-0.91,0.87-1.26c0.37-0.35,0.81-0.61,1.32-0.8
					c0.51-0.19,1.06-0.28,1.66-0.28c0.6,0,1.15,0.09,1.66,0.28c0.51,0.19,0.95,0.45,1.32,0.8c0.37,0.35,0.66,0.76,0.87,1.26
					C169.06,40.91,169.17,41.46,169.17,42.07z M167.19,42.07c0-0.33-0.05-0.64-0.16-0.93c-0.11-0.29-0.26-0.53-0.45-0.74
					c-0.19-0.2-0.42-0.37-0.69-0.49s-0.57-0.18-0.89-0.18c-0.32,0-0.62,0.06-0.89,0.18c-0.27,0.12-0.5,0.28-0.69,0.49
					c-0.19,0.2-0.34,0.45-0.45,0.74c-0.1,0.29-0.16,0.6-0.16,0.93c0,0.35,0.05,0.66,0.16,0.95c0.11,0.29,0.26,0.54,0.45,0.75
					c0.19,0.21,0.42,0.37,0.69,0.49c0.27,0.12,0.56,0.18,0.89,0.18c0.32,0,0.62-0.06,0.89-0.18c0.27-0.12,0.5-0.28,0.69-0.49
					c0.19-0.21,0.35-0.46,0.45-0.75C167.13,42.73,167.19,42.42,167.19,42.07z"/>
				<path class="st1" d="M170.55,45.92v-7.64h1.86v6.03h2.96v1.61H170.55z"/>
				<path class="st1" d="M184.25,42.07c0,0.6-0.1,1.16-0.31,1.66c-0.21,0.5-0.5,0.93-0.87,1.28c-0.37,0.36-0.81,0.63-1.32,0.83
					c-0.51,0.19-1.07,0.29-1.66,0.29c-0.6,0-1.15-0.1-1.66-0.29c-0.51-0.19-0.95-0.47-1.32-0.83c-0.37-0.36-0.66-0.78-0.87-1.28
					c-0.21-0.5-0.31-1.05-0.31-1.66c0-0.61,0.1-1.16,0.31-1.66c0.21-0.49,0.5-0.91,0.87-1.26c0.37-0.35,0.81-0.61,1.32-0.8
					c0.51-0.19,1.06-0.28,1.66-0.28c0.6,0,1.15,0.09,1.66,0.28c0.51,0.19,0.95,0.45,1.32,0.8c0.37,0.35,0.66,0.76,0.87,1.26
					C184.14,40.91,184.25,41.46,184.25,42.07z M182.27,42.07c0-0.33-0.05-0.64-0.16-0.93c-0.11-0.29-0.26-0.53-0.45-0.74
					c-0.19-0.2-0.42-0.37-0.69-0.49s-0.57-0.18-0.89-0.18c-0.32,0-0.62,0.06-0.89,0.18c-0.27,0.12-0.5,0.28-0.69,0.49
					c-0.19,0.2-0.34,0.45-0.45,0.74c-0.1,0.29-0.16,0.6-0.16,0.93c0,0.35,0.05,0.66,0.16,0.95c0.11,0.29,0.26,0.54,0.45,0.75
					c0.19,0.21,0.42,0.37,0.69,0.49c0.27,0.12,0.56,0.18,0.89,0.18c0.32,0,0.62-0.06,0.89-0.18c0.27-0.12,0.5-0.28,0.69-0.49
					c0.19-0.21,0.35-0.46,0.45-0.75C182.22,42.73,182.27,42.42,182.27,42.07z"/>
				<path class="st1" d="M191.09,45.93c-0.5,0.12-1.05,0.18-1.64,0.18c-0.61,0-1.18-0.1-1.69-0.29c-0.51-0.19-0.96-0.47-1.33-0.82
					c-0.37-0.35-0.66-0.77-0.87-1.27c-0.21-0.49-0.31-1.04-0.31-1.65c0-0.61,0.11-1.16,0.32-1.66c0.21-0.5,0.51-0.92,0.88-1.27
					c0.37-0.35,0.81-0.62,1.32-0.8c0.5-0.19,1.05-0.28,1.63-0.28c0.6,0,1.17,0.09,1.68,0.28c0.52,0.18,0.94,0.43,1.26,0.74
					l-1.17,1.33c-0.18-0.21-0.42-0.38-0.71-0.51c-0.3-0.13-0.63-0.2-1-0.2c-0.32,0-0.62,0.06-0.9,0.18
					c-0.27,0.12-0.51,0.28-0.71,0.5c-0.2,0.21-0.36,0.46-0.47,0.75c-0.11,0.29-0.17,0.61-0.17,0.95c0,0.35,0.05,0.68,0.15,0.97
					c0.1,0.3,0.25,0.55,0.45,0.76c0.2,0.21,0.44,0.38,0.73,0.5s0.62,0.18,1,0.18c0.22,0,0.42-0.02,0.62-0.05
					c0.19-0.03,0.37-0.08,0.54-0.16V42.9h-1.46v-1.49h3.15v4.04C192.02,45.65,191.59,45.81,191.09,45.93z"/>
				<path class="st1" d="M197.71,42.69v3.24h-1.85v-3.24l-2.87-4.4h2.24l1.63,2.83l1.63-2.83h2.16L197.71,42.69z"/>
			</g>
		</g>
		<g>
			<g>
				<path class="st1" d="M128.8,31.54c-0.15,0.38-0.38,0.7-0.66,0.97c-0.29,0.27-0.64,0.48-1.04,0.63
					c-0.41,0.15-0.86,0.23-1.36,0.23c-0.5,0-0.96-0.08-1.36-0.23c-0.4-0.15-0.75-0.36-1.03-0.63c-0.28-0.27-0.5-0.59-0.65-0.97
					c-0.15-0.38-0.23-0.8-0.23-1.26v-4.76h1.84v4.61c0,0.21,0.03,0.41,0.08,0.59c0.05,0.19,0.14,0.35,0.25,0.5
					c0.11,0.15,0.26,0.26,0.44,0.35c0.18,0.09,0.4,0.13,0.66,0.13s0.48-0.04,0.66-0.13c0.18-0.09,0.33-0.2,0.45-0.35
					s0.2-0.31,0.25-0.5c0.05-0.19,0.08-0.38,0.08-0.59v-4.61h1.85v4.76C129.03,30.75,128.96,31.16,128.8,31.54z"/>
				<path class="st1" d="M135.61,33.17l-3.08-4.99h-0.03l0.04,4.99h-1.79v-7.64h2.11l3.07,4.98h0.03l-0.04-4.98h1.79v7.64H135.61z"
					/>
				<path class="st1" d="M139.48,33.17v-7.64h1.86v7.64H139.48z"/>
				<path class="st1" d="M146.96,33.17h-1.85l-2.89-7.64h2.07l1.77,5.42h0.04l1.76-5.42h2.04L146.96,33.17z"/>
				<path class="st1" d="M150.79,33.17v-7.64h5.14v1.55h-3.36v1.45h3.18V30h-3.18v1.59h3.55v1.57H150.79z"/>
				<path class="st1" d="M161.7,33.17l-1.66-3.03h-0.63v3.03h-1.8v-7.64h2.92c0.37,0,0.73,0.04,1.07,0.11
					c0.35,0.08,0.66,0.2,0.94,0.38c0.28,0.18,0.5,0.42,0.66,0.71c0.17,0.29,0.25,0.66,0.25,1.1c0,0.52-0.14,0.95-0.42,1.31
					c-0.28,0.35-0.67,0.6-1.17,0.76l2,3.27H161.7z M161.63,27.87c0-0.18-0.04-0.33-0.11-0.44c-0.08-0.11-0.17-0.2-0.29-0.26
					c-0.12-0.06-0.25-0.1-0.4-0.12c-0.15-0.02-0.29-0.03-0.43-0.03h-0.99v1.78h0.88c0.15,0,0.31-0.01,0.47-0.04
					c0.16-0.03,0.3-0.07,0.43-0.14c0.13-0.06,0.24-0.16,0.32-0.28C161.59,28.22,161.63,28.06,161.63,27.87z"/>
				<path class="st1" d="M169.03,27.51c-0.16-0.2-0.37-0.36-0.62-0.48c-0.26-0.12-0.5-0.18-0.74-0.18c-0.12,0-0.25,0.01-0.37,0.03
					c-0.13,0.02-0.24,0.06-0.34,0.12c-0.1,0.06-0.19,0.14-0.25,0.24c-0.07,0.1-0.1,0.22-0.1,0.37c0,0.13,0.03,0.24,0.08,0.32
					c0.05,0.09,0.13,0.16,0.24,0.23c0.1,0.06,0.23,0.12,0.37,0.18c0.14,0.05,0.31,0.11,0.49,0.17c0.26,0.09,0.53,0.18,0.81,0.29
					c0.28,0.1,0.54,0.24,0.77,0.42c0.23,0.17,0.42,0.39,0.57,0.64c0.15,0.26,0.23,0.57,0.23,0.95c0,0.44-0.08,0.82-0.24,1.14
					c-0.16,0.32-0.38,0.58-0.65,0.79c-0.27,0.21-0.59,0.36-0.94,0.46c-0.35,0.1-0.72,0.15-1.09,0.15c-0.55,0-1.08-0.1-1.59-0.29
					c-0.51-0.19-0.94-0.46-1.27-0.81l1.21-1.23c0.19,0.23,0.43,0.42,0.74,0.58c0.31,0.15,0.61,0.23,0.91,0.23
					c0.14,0,0.27-0.01,0.4-0.04c0.13-0.03,0.24-0.08,0.34-0.14c0.1-0.06,0.17-0.15,0.23-0.26c0.06-0.11,0.09-0.24,0.09-0.39
					c0-0.14-0.04-0.27-0.11-0.37s-0.17-0.19-0.31-0.28c-0.13-0.08-0.3-0.16-0.5-0.23c-0.2-0.07-0.42-0.14-0.68-0.22
					c-0.24-0.08-0.48-0.17-0.72-0.28c-0.23-0.11-0.44-0.25-0.63-0.42c-0.18-0.17-0.33-0.37-0.44-0.61
					c-0.11-0.24-0.17-0.53-0.17-0.88c0-0.42,0.09-0.79,0.26-1.09c0.17-0.3,0.4-0.55,0.68-0.74c0.28-0.19,0.6-0.34,0.95-0.43
					c0.35-0.09,0.71-0.14,1.07-0.14c0.43,0,0.87,0.08,1.32,0.24c0.45,0.16,0.84,0.39,1.18,0.7L169.03,27.51z"/>
				<path class="st1" d="M171.56,33.17v-7.64h1.86v7.64H171.56z"/>
				<path class="st1" d="M178.41,27.1v6.06h-1.85V27.1h-2.16v-1.58h6.17v1.58H178.41z"/>
				<path class="st1" d="M185.8,29.93v3.24h-1.85v-3.24l-2.87-4.4h2.24l1.63,2.83l1.63-2.83h2.16L185.8,29.93z"/>
				<path class="st1" d="M200.41,29.31c0,0.6-0.1,1.16-0.31,1.66c-0.21,0.5-0.5,0.93-0.87,1.28c-0.37,0.36-0.81,0.63-1.32,0.83
					c-0.51,0.19-1.07,0.29-1.66,0.29c-0.6,0-1.15-0.1-1.66-0.29c-0.51-0.19-0.95-0.47-1.32-0.83c-0.37-0.36-0.66-0.78-0.87-1.28
					c-0.21-0.5-0.31-1.05-0.31-1.66c0-0.61,0.1-1.16,0.31-1.66c0.21-0.49,0.5-0.91,0.87-1.26c0.37-0.35,0.81-0.61,1.32-0.8
					c0.51-0.19,1.06-0.28,1.66-0.28c0.6,0,1.15,0.09,1.66,0.28c0.51,0.19,0.95,0.45,1.32,0.8c0.37,0.35,0.66,0.76,0.87,1.26
					C200.3,28.15,200.41,28.7,200.41,29.31z M198.43,29.31c0-0.33-0.05-0.64-0.16-0.93c-0.11-0.29-0.26-0.53-0.45-0.74
					c-0.19-0.2-0.42-0.37-0.69-0.49c-0.27-0.12-0.57-0.18-0.89-0.18c-0.32,0-0.62,0.06-0.89,0.18c-0.27,0.12-0.5,0.28-0.69,0.49
					c-0.19,0.2-0.34,0.45-0.45,0.74c-0.1,0.29-0.16,0.6-0.16,0.93c0,0.35,0.05,0.66,0.16,0.95c0.11,0.29,0.26,0.54,0.45,0.75
					c0.19,0.21,0.42,0.37,0.69,0.49c0.27,0.12,0.56,0.18,0.89,0.18c0.32,0,0.62-0.06,0.89-0.18c0.27-0.12,0.5-0.28,0.69-0.49
					c0.19-0.21,0.35-0.46,0.45-0.75C198.38,29.98,198.43,29.66,198.43,29.31z"/>
				<path class="st1" d="M203.62,27.1v1.57h2.96v1.52h-2.96v2.97h-1.83v-7.64h5.03v1.58H203.62z"/>
			</g>
		</g>
	</g>
	<g>
		<g>
			<path class="st1" d="M28.04,19.59v26.32h-8.22V19.59h-9.61v-6.84h27.45v6.84H28.04z"/>
			<path class="st1" d="M68.96,38.87c-0.69,1.64-1.67,3.04-2.96,4.22c-1.28,1.17-2.83,2.08-4.64,2.74
				c-1.81,0.66-3.82,0.98-6.03,0.98c-2.24,0-4.26-0.33-6.06-0.98c-1.79-0.66-3.32-1.57-4.57-2.74c-1.25-1.17-2.21-2.58-2.88-4.22
				c-0.67-1.64-1.01-3.46-1.01-5.46V12.76h8.17v20c0,0.91,0.12,1.76,0.36,2.58c0.24,0.81,0.61,1.54,1.11,2.18
				c0.5,0.64,1.15,1.15,1.97,1.52c0.82,0.37,1.8,0.56,2.96,0.56s2.14-0.19,2.96-0.56s1.48-0.88,1.99-1.52
				c0.51-0.64,0.88-1.37,1.11-2.18c0.22-0.81,0.34-1.67,0.34-2.58v-20H70v20.66C70,35.41,69.65,37.23,68.96,38.87z"/>
		</g>
		<polygon class="st1" points="75.08,51.02 91.75,10.2 85.79,10.2 69.13,51.02 		"/>
		<path class="st1" d="M99.84,21.97c-6.86,0-12.42,5.56-12.42,12.42S92.98,46.8,99.84,46.8c4.4,0,8.9-1.93,11.32-5.39l-5.63-2.3
			c-1.5,1.66-3.55,2.32-5.69,2.32c-3.16,0-5.83-2.08-6.72-4.94h18.96c0.12-0.68,0.18-1.39,0.18-2.11
			C112.26,27.53,106.7,21.97,99.84,21.97z M99.84,27.35c2.94,0,5.46,1.81,6.52,4.37H93.32C94.38,29.15,96.9,27.35,99.84,27.35z"/>
	</g>
</g>
</svg>
